<svg width="186" height="186" viewBox="0 0 186 186" fill="none" xmlns="http://www.w3.org/2000/svg">
<g clip-path="url(#clip0_27_1575)">
<path d="M185.902 94.7402C185.902 87.1199 185.269 81.5591 183.9 75.7924H94.8526V110.187H147.121C146.068 118.734 140.377 131.607 127.731 140.256L127.554 141.408L155.709 162.722L157.66 162.912C175.574 146.744 185.902 122.956 185.902 94.7402" fill="#4285F4"/>
<path d="M94.8525 185.361C120.46 185.361 141.957 177.122 157.66 162.912L127.731 140.256C119.722 145.714 108.973 149.524 94.8525 149.524C69.772 149.524 48.4852 133.357 40.897 111.011L39.7848 111.103L10.5088 133.243L10.1259 134.284C25.7221 164.559 57.7581 185.361 94.8525 185.361Z" fill="#34A853"/>
<path d="M40.8972 111.011C38.895 105.244 37.7363 99.0649 37.7363 92.6806C37.7363 86.2955 38.895 80.117 40.7919 74.3503L40.7389 73.1222L11.096 50.6261L10.1261 51.0769C3.69817 63.6404 0.00979614 77.7487 0.00979614 92.6806C0.00979614 107.612 3.69817 121.72 10.1261 134.284L40.8972 111.011" fill="#FBBC05"/>
<path d="M94.8525 35.8362C112.662 35.8362 124.675 43.3536 131.525 49.6357L158.292 24.0969C141.853 9.16511 120.46 0 94.8525 0C57.7581 0 25.7221 20.8015 10.1259 51.0769L40.7917 74.3503C48.4852 52.004 69.772 35.8362 94.8525 35.8362" fill="#EB4335"/>
</g>
<defs>
<clipPath id="clip0_27_1575">
<rect width="186" height="186" fill="white"/>
</clipPath>
</defs>
</svg>
